<svg viewBox="0 0 77 21" xmlns:xlink="http://www.w3.org/1999/xlink" xmlns="http://www.w3.org/2000/svg" width="77" height="21" fill="none"><path fill="#FFF" d="M20.667 4.465c-.879 0-1.658.465-2.133 1.183l-3.224 4.863a.64.64 0 0 1-.533.295c-.362 0-.656-.315-.656-.705 0-.145.04-.281.109-.392l2.723-4.384a3 3 0 0 0 .131-2.892c-.455-.916-1.342-1.487-2.307-1.487H.38v2.816h12.436c0 .777-.587 1.408-1.309 1.408H.38c0 1.002.194 1.954.547 2.817h9.271c0 .776-.587 1.408-1.308 1.408H1.688c1.194 1.71 3.096 2.817 5.238 2.817h3.925c.362 0 .656.316.656.705 0 .39-.294.706-.656.706H6.926l-4.373 7.044h8.628c3.622 0 6.697-2.536 7.771-6.046l1.475-4.81a8.856 8.856 0 0 1 2.494-3.969c-.461-.826-1.297-1.377-2.254-1.377Zm0 1.938c-.27 0-.489-.236-.489-.527 0-.291.219-.527.489-.527.272 0 .49.237.49.527.003.29-.218.527-.49.527Zm18.696 7.349c.529.731.793 1.566.793 2.506 0 1.355-.441 2.428-1.32 3.22-.879.792-2.108 1.189-3.68 1.189h-7.015V4.459h6.78c1.53 0 2.729.376 3.594 1.131.865.754 1.297 1.778 1.297 3.072 0 .955-.232 1.747-.696 2.379a3.58 3.58 0 0 1-1.855 1.315c.87.198 1.572.663 2.102 1.396Zm-7.554-2.736h2.402c.602 0 1.063-.142 1.383-.428.321-.284.484-.706.484-1.258 0-.554-.16-.976-.484-1.269-.32-.293-.781-.438-1.383-.438h-2.402Zm4.132 6.012c.335-.299.504-.733.504-1.303 0-.571-.175-1.017-.527-1.341-.349-.323-.833-.484-1.449-.484h-2.66v3.578h2.703c.616.003 1.091-.148 1.429-.45ZM45.949 4.459v16.208h-3.668V4.459Zm10.342 16.208-3.132-6.12h-.879v6.12h-3.671V4.459h6.156c1.188 0 2.199.221 3.035.668.836.447 1.464 1.06 1.879 1.837.415.776.621 1.642.621 2.598 0 1.078-.283 2.039-.847 2.887-.565.847-1.398 1.448-2.5 1.799l3.476 6.419Zm-4.014-8.915h2.273c.673 0 1.177-.175 1.512-.53.335-.354.504-.853.504-1.5 0-.617-.169-1.1-.504-1.455-.335-.354-.839-.53-1.512-.53h-2.273Zm20.127-6.28a7.002 7.002 0 0 1 2.757 2.851c.65 1.223.977 2.634.977 4.237 0 1.587-.327 2.995-.977 4.225a6.941 6.941 0 0 1-2.769 2.862c-1.194.678-2.577 1.017-4.152 1.017h-5.643V4.456h5.643c1.59.003 2.976.342 4.164 1.016Zm-1.16 10.554c.773-.816 1.16-1.969 1.16-3.463 0-1.492-.387-2.656-1.16-3.485-.773-.832-1.852-1.248-3.238-1.248h-1.738v9.42h1.738c1.386 0 2.465-.41 3.238-1.224Z"/></svg>