<svg viewBox="0 0 48 48" xmlns:xlink="http://www.w3.org/1999/xlink" xmlns="http://www.w3.org/2000/svg" width="48" height="48" fill="none"><path fill="#fff" d="M25.855 11.961h-3.77c-6.684.008-12.1 5.377-12.106 12.002.008 6.623 5.423 11.99 12.106 11.998h3.785c6.684-.006 12.101-5.374 12.109-11.998-.007-6.631-5.433-12.003-12.124-12.002ZM11.477 23.963c0-5.802 4.746-10.505 10.6-10.505.592 0 1.183.048 1.767.144 5.108.838 8.848 5.224 8.829 10.355-.006 3.293-2.404 6.104-5.681 6.655a8.212 8.212 0 0 0 3.41-6.655c.006-3.764-2.564-7.054-6.243-7.99a8.354 8.354 0 0 0-2.082-.261c-4.589.014-8.303 3.703-8.308 8.251a11.94 11.94 0 0 0 5.635 10.156c-4.657-1.212-7.907-5.379-7.918-10.15Zm12.487-6.482c2.915.832 4.921 3.476 4.919 6.482.001 3.005-2.005 5.647-4.919 6.479-2.913-.832-4.919-3.474-4.918-6.479-.003-3.006 2.004-5.65 4.918-6.482Zm1.891 16.981h-.043a10.886 10.886 0 0 1-1.719-.145c-4.973-.817-8.668-5.008-8.817-10.002v-.352c.003-3.294 2.403-6.106 5.68-6.655a8.21 8.21 0 0 0-3.411 6.655c-.006 3.763 2.564 7.051 6.242 7.986a8.22 8.22 0 0 0 2.083.262c4.594-.005 8.318-3.695 8.324-8.248a11.933 11.933 0 0 0-5.635-10.156c4.657 1.213 7.903 5.384 7.904 10.156a10.457 10.457 0 0 1-3.109 7.427 10.651 10.651 0 0 1-7.499 3.072Z"/></svg>